<?xml version="1.0" encoding="utf-8"?>
<!-- Generator: Adobe Illustrator 16.0.4, SVG Export Plug-In . SVG Version: 6.00 Build 0)  -->
<!DOCTYPE svg PUBLIC "-//W3C//DTD SVG 1.1//EN" "http://www.w3.org/Graphics/SVG/1.1/DTD/svg11.dtd">
<svg version="1.1" id="Layer_1" xmlns="http://www.w3.org/2000/svg" xmlns:xlink="http://www.w3.org/1999/xlink" x="0px" y="0px"
	 width="22px" height="14.75px" viewBox="0 0 22 14.75" enable-background="new 0 0 22 14.75" xml:space="preserve">
<g>
	
		<image display="none" overflow="visible" width="573" height="6" xlink:href="8F4B8E5324BE4122.jpg"  transform="matrix(0.3333 0 0 0.3333 -13 -17)">
	</image>
	
		<image display="none" overflow="visible" width="576" height="132" xlink:href="8F4B8E5324BE4126.jpg"  transform="matrix(0.3333 0 0 0.3333 -13 -15)">
	</image>
	
		<image display="none" overflow="visible" width="573" height="6" xlink:href="8F4B8E5324BE4121.jpg"  transform="matrix(0.3333 0 0 0.3333 -13 29)">
	</image>
	<g display="none">
		<defs>
			<rect id="SVGID_1_" x="-13" y="-17" width="193" height="48"/>
		</defs>
		<defs>
			<path id="SVGID_2_" d="M-7.001-13C-8.105-13-9-12.108-9-11.003v36.006C-9,26.105-8.113,27-7.001,27h181.002
				c1.104,0,1.999-0.892,1.999-1.997v-36.006c0-1.103-0.887-1.997-1.999-1.997H-7.001L-7.001-13z M-7.001-13"/>
		</defs>
		<defs>
			<path id="SVGID_3_" d="M-13-17h193v48H-13V-17z M-13-17"/>
		</defs>
		<defs>
			<rect id="SVGID_4_" x="-13" y="-761" width="612" height="792"/>
		</defs>
		<clipPath id="SVGID_5_" display="inline">
			<use xlink:href="#SVGID_1_"  overflow="visible"/>
		</clipPath>
		<clipPath id="SVGID_6_" display="inline" clip-path="url(#SVGID_5_)">
			<use xlink:href="#SVGID_2_"  overflow="visible"/>
		</clipPath>
		<clipPath id="SVGID_7_" display="inline" clip-path="url(#SVGID_6_)">
			<use xlink:href="#SVGID_3_"  overflow="visible"/>
		</clipPath>
		<clipPath id="SVGID_8_" display="inline" clip-path="url(#SVGID_7_)">
			<use xlink:href="#SVGID_4_"  overflow="visible"/>
		</clipPath>
		<rect x="-14" y="-18" display="inline" clip-path="url(#SVGID_8_)" fill="#DB4E3F" width="195" height="50"/>
	</g>
	<g>
		<defs>
			<rect id="SVGID_9_" x="-13" y="-17" width="193" height="48"/>
		</defs>
		<defs>
			<path id="SVGID_10_" d="M7,6v2.4h3.97C10.81,9.43,9.77,11.42,7,11.42C4.61,11.42,2.66,9.44,2.66,7c0-2.44,1.95-4.42,4.34-4.42
				c1.36,0,2.27,0.58,2.79,1.08l1.9-1.83C10.47,0.69,8.89,0,7,0C3.13,0,0,3.13,0,7s3.13,7,7,7c4.04,0,6.72-2.84,6.72-6.84
				c0-0.46-0.05-0.81-0.11-1.16H7L7,6L7,6z M7,6"/>
		</defs>
		<defs>
			<path id="SVGID_11_" d="M-13-17h193v48H-13V-17z M-13-17"/>
		</defs>
		<defs>
			<rect id="SVGID_12_" x="-13" y="-761" width="612" height="792"/>
		</defs>
		<clipPath id="SVGID_13_">
			<use xlink:href="#SVGID_9_"  overflow="visible"/>
		</clipPath>
		<clipPath id="SVGID_14_" clip-path="url(#SVGID_13_)">
			<use xlink:href="#SVGID_10_"  overflow="visible"/>
		</clipPath>
		<clipPath id="SVGID_15_" clip-path="url(#SVGID_14_)">
			<use xlink:href="#SVGID_11_"  overflow="visible"/>
		</clipPath>
		<clipPath id="SVGID_16_" clip-path="url(#SVGID_15_)">
			<use xlink:href="#SVGID_12_"  overflow="visible"/>
		</clipPath>
		<rect x="-5" y="-5" clip-path="url(#SVGID_16_)" fill="#FFFFFF" width="23.72" height="24"/>
	</g>
	<g>
		<defs>
			<rect id="SVGID_17_" x="-13" y="-17" width="193" height="48"/>
		</defs>
		<defs>
			<polyline id="SVGID_18_" points="22,6 20,6 20,4 18,4 18,6 16,6 16,8 18,8 18,10 20,10 20,8 22,8 			"/>
		</defs>
		<clipPath id="SVGID_19_">
			<use xlink:href="#SVGID_17_"  overflow="visible"/>
		</clipPath>
		<clipPath id="SVGID_20_" clip-path="url(#SVGID_19_)">
			<use xlink:href="#SVGID_18_"  overflow="visible"/>
		</clipPath>
		<rect x="11" y="-1" clip-path="url(#SVGID_20_)" fill="#FFFFFF" width="16" height="16"/>
	</g>
	<path display="none" fill="#FFFFFF" d="M46.759,10.403c-0.303,0.244-0.755,0.366-1.357,0.366c-0.305,0-0.59-0.033-0.854-0.1
		c-0.264-0.065-0.493-0.171-0.687-0.314s-0.346-0.328-0.458-0.554s-0.167-0.495-0.167-0.81h-1.729c0,0.528,0.113,0.989,0.338,1.381
		s0.523,0.719,0.892,0.98c0.369,0.263,0.786,0.458,1.251,0.588s0.937,0.195,1.415,0.195c0.538,0,1.025-0.062,1.463-0.188
		c0.438-0.125,0.81-0.305,1.118-0.54c0.308-0.234,0.544-0.52,0.711-0.854s0.25-0.712,0.25-1.131c0-0.396-0.066-0.753-0.198-1.07
		c-0.132-0.316-0.334-0.602-0.605-0.854s-0.612-0.479-1.022-0.68c-0.41-0.201-0.896-0.383-1.456-0.547
		c-0.715-0.209-1.248-0.438-1.596-0.684s-0.523-0.554-0.523-0.923c0-0.196,0.035-0.378,0.106-0.547s0.18-0.314,0.328-0.438
		s0.334-0.219,0.557-0.287s0.488-0.103,0.793-0.103c0.324,0,0.604,0.041,0.841,0.123s0.433,0.197,0.588,0.345
		s0.27,0.324,0.345,0.526s0.113,0.425,0.113,0.667h1.723c0-0.415-0.082-0.806-0.246-1.172s-0.4-0.689-0.708-0.967
		s-0.685-0.498-1.131-0.66s-0.95-0.243-1.511-0.243c-0.524,0-1.002,0.068-1.436,0.205s-0.804,0.328-1.114,0.574
		s-0.55,0.538-0.721,0.875s-0.256,0.707-0.256,1.107c0,0.406,0.082,0.766,0.246,1.08s0.391,0.592,0.68,0.834
		s0.635,0.453,1.036,0.636s0.838,0.344,1.312,0.485c0.433,0.132,0.787,0.259,1.063,0.379c0.276,0.121,0.492,0.248,0.649,0.38
		s0.266,0.276,0.325,0.434s0.089,0.337,0.089,0.537C47.214,9.838,47.062,10.16,46.759,10.403L46.759,10.403z M52.292,4.604H50.63V12
		h1.661V4.604L52.292,4.604z M50.771,3.308c0.162,0.167,0.393,0.25,0.694,0.25s0.533-0.083,0.697-0.25s0.246-0.375,0.246-0.625
		c0-0.255-0.082-0.467-0.246-0.636s-0.396-0.253-0.697-0.253s-0.532,0.084-0.694,0.253c-0.162,0.168-0.243,0.38-0.243,0.636
		C50.528,2.933,50.608,3.142,50.771,3.308L50.771,3.308z M54.033,8.391c0,0.538,0.068,1.035,0.205,1.493s0.334,0.854,0.591,1.187
		c0.258,0.333,0.567,0.594,0.93,0.782c0.362,0.189,0.769,0.284,1.22,0.284c0.415,0,0.779-0.068,1.094-0.205s0.588-0.335,0.82-0.595
		v0.499c0,0.579-0.159,1.018-0.479,1.315c-0.319,0.299-0.754,0.448-1.306,0.448c-0.342,0-0.673-0.07-0.995-0.212
		s-0.619-0.374-0.892-0.697l-0.786,0.998c0.164,0.224,0.362,0.412,0.595,0.567s0.477,0.281,0.731,0.379
		c0.255,0.099,0.508,0.169,0.759,0.212c0.251,0.044,0.479,0.065,0.684,0.065c0.492,0,0.945-0.069,1.357-0.209
		c0.413-0.139,0.766-0.34,1.06-0.604s0.523-0.59,0.687-0.978s0.246-0.829,0.246-1.326V4.604h-1.497l-0.075,0.745
		c-0.232-0.283-0.51-0.5-0.834-0.653c-0.323-0.153-0.708-0.229-1.155-0.229c-0.456,0-0.866,0.091-1.23,0.273
		c-0.364,0.182-0.675,0.44-0.933,0.772c-0.257,0.333-0.455,0.731-0.591,1.196s-0.205,0.978-0.205,1.538V8.391L54.033,8.391z
		 M55.687,8.247c0-0.333,0.034-0.646,0.103-0.94s0.172-0.55,0.311-0.769c0.139-0.219,0.318-0.392,0.537-0.52
		s0.479-0.191,0.779-0.191c0.36,0,0.66,0.075,0.899,0.226s0.432,0.355,0.578,0.615v3.254c-0.146,0.26-0.337,0.468-0.574,0.625
		c-0.237,0.157-0.542,0.236-0.916,0.236c-0.301,0-0.558-0.062-0.772-0.188c-0.214-0.125-0.392-0.297-0.533-0.516
		c-0.141-0.219-0.245-0.473-0.311-0.763c-0.066-0.289-0.099-0.598-0.099-0.926V8.247L55.687,8.247z M62.46,4.604V12h1.661V6.736
		c0.15-0.278,0.352-0.499,0.605-0.663s0.55-0.246,0.892-0.246c0.209,0,0.396,0.024,0.557,0.072s0.297,0.126,0.407,0.236
		s0.192,0.252,0.25,0.427s0.085,0.391,0.085,0.646V12h1.661V7.222c0-0.501-0.056-0.927-0.167-1.278s-0.27-0.636-0.475-0.854
		s-0.452-0.377-0.742-0.475s-0.612-0.147-0.967-0.147c-0.447,0-0.852,0.086-1.217,0.26s-0.677,0.417-0.937,0.731l-0.048-0.854H62.46
		L62.46,4.604z M75.972,4.604h-1.661V12h1.661V4.604L75.972,4.604z M74.451,3.308c0.162,0.167,0.393,0.25,0.694,0.25
		s0.533-0.083,0.697-0.25s0.246-0.375,0.246-0.625c0-0.255-0.082-0.467-0.246-0.636s-0.396-0.253-0.697-0.253
		s-0.532,0.084-0.694,0.253c-0.162,0.168-0.243,0.38-0.243,0.636C74.208,2.933,74.289,3.142,74.451,3.308L74.451,3.308z
		 M77.979,4.604V12h1.661V6.736c0.15-0.278,0.352-0.499,0.605-0.663s0.55-0.246,0.892-0.246c0.21,0,0.396,0.024,0.557,0.072
		c0.162,0.048,0.297,0.126,0.407,0.236s0.193,0.252,0.25,0.427c0.057,0.175,0.085,0.391,0.085,0.646V12h1.661V7.222
		c0-0.501-0.056-0.927-0.167-1.278c-0.112-0.351-0.271-0.636-0.476-0.854s-0.452-0.377-0.742-0.475
		c-0.289-0.098-0.612-0.147-0.967-0.147c-0.446,0-0.852,0.086-1.217,0.26c-0.364,0.173-0.677,0.417-0.937,0.731l-0.048-0.854H77.979
		L77.979,4.604z M94.684,4.604h-1.251l-1.518,5.052l-1.196-5.052h-1.62L91.122,12h1.367l1.559-5.079L95.634,12h1.367l2.017-7.396
		h-1.62L96.222,9.71L94.684,4.604L94.684,4.604z M102.119,4.604h-1.661V12h1.661V4.604L102.119,4.604z M100.599,3.308
		c0.161,0.167,0.393,0.25,0.693,0.25s0.533-0.083,0.697-0.25s0.246-0.375,0.246-0.625c0-0.255-0.082-0.467-0.246-0.636
		s-0.396-0.253-0.697-0.253s-0.532,0.084-0.693,0.253c-0.162,0.168-0.243,0.38-0.243,0.636
		C100.355,2.933,100.437,3.142,100.599,3.308L100.599,3.308z M104.572,2.806v1.798h-1.217v1.23h1.217v4.225
		c0,0.383,0.048,0.706,0.144,0.971s0.229,0.479,0.399,0.643s0.374,0.282,0.608,0.355c0.235,0.073,0.489,0.109,0.763,0.109
		c0.246,0,0.457-0.018,0.632-0.052c0.176-0.034,0.329-0.069,0.462-0.105v-1.285c-0.06,0.014-0.143,0.028-0.25,0.044
		c-0.106,0.017-0.218,0.024-0.331,0.024c-0.114,0-0.218-0.011-0.312-0.031c-0.093-0.021-0.174-0.059-0.242-0.116
		c-0.068-0.057-0.121-0.138-0.157-0.242c-0.037-0.104-0.055-0.241-0.055-0.41V5.834h1.306v-1.23h-1.306V2.806H104.572L104.572,2.806
		z M110.668,1.5h-1.661V12h1.661V6.716c0.15-0.273,0.35-0.49,0.599-0.649c0.248-0.16,0.545-0.239,0.892-0.239
		c0.429,0,0.753,0.106,0.975,0.318c0.221,0.212,0.331,0.573,0.331,1.083V12h1.661V7.242c0-0.501-0.057-0.929-0.171-1.282
		s-0.275-0.64-0.485-0.861s-0.463-0.382-0.759-0.482s-0.624-0.15-0.984-0.15c-0.424,0-0.809,0.083-1.155,0.25
		s-0.647,0.397-0.902,0.694V1.5L110.668,1.5z M128.527,6.894h-3.773v1.312h2.051v1.948c-0.06,0.063-0.136,0.131-0.229,0.201
		c-0.093,0.071-0.213,0.136-0.358,0.195c-0.146,0.06-0.325,0.108-0.537,0.146c-0.212,0.039-0.466,0.059-0.762,0.059
		c-0.401,0-0.76-0.075-1.077-0.226c-0.316-0.15-0.585-0.369-0.807-0.656c-0.221-0.287-0.391-0.642-0.509-1.063
		c-0.119-0.421-0.178-0.905-0.178-1.452v-0.67c0-0.538,0.049-1.018,0.146-1.439c0.099-0.421,0.246-0.777,0.444-1.066
		s0.447-0.509,0.745-0.66c0.299-0.15,0.65-0.226,1.057-0.226c0.337,0,0.628,0.045,0.871,0.137c0.244,0.091,0.449,0.216,0.615,0.376
		c0.167,0.16,0.298,0.349,0.394,0.567s0.164,0.458,0.205,0.718h1.695c-0.06-0.465-0.178-0.892-0.355-1.282s-0.422-0.726-0.731-1.008
		c-0.311-0.283-0.69-0.502-1.142-0.66s-0.98-0.236-1.586-0.236c-0.643,0-1.217,0.107-1.723,0.321s-0.935,0.526-1.285,0.937
		c-0.352,0.41-0.62,0.913-0.807,1.507c-0.188,0.595-0.28,1.271-0.28,2.027v0.656c0,0.761,0.104,1.438,0.311,2.03
		c0.208,0.593,0.498,1.092,0.872,1.497c0.373,0.405,0.821,0.716,1.343,0.93c0.522,0.214,1.095,0.321,1.72,0.321
		c0.556,0,1.04-0.049,1.452-0.147c0.413-0.098,0.766-0.219,1.06-0.362s0.534-0.298,0.722-0.465c0.187-0.166,0.332-0.317,0.438-0.454
		V6.894L128.527,6.894z M130.18,8.377c0,0.538,0.079,1.037,0.236,1.497s0.383,0.857,0.677,1.192s0.653,0.598,1.08,0.786
		c0.426,0.189,0.91,0.284,1.452,0.284c0.538,0,1.02-0.095,1.446-0.284c0.426-0.188,0.786-0.451,1.08-0.786s0.519-0.732,0.673-1.192
		c0.155-0.46,0.232-0.959,0.232-1.497V8.233c0-0.538-0.077-1.036-0.232-1.494c-0.154-0.458-0.379-0.855-0.673-1.193
		s-0.655-0.602-1.084-0.793c-0.428-0.191-0.913-0.287-1.456-0.287c-0.537,0-1.019,0.096-1.442,0.287s-0.782,0.456-1.076,0.793
		s-0.52,0.735-0.677,1.193c-0.157,0.458-0.236,0.956-0.236,1.494V8.377L130.18,8.377z M131.841,8.233
		c0-0.328,0.034-0.64,0.103-0.934s0.176-0.551,0.321-0.772c0.146-0.221,0.329-0.397,0.551-0.53c0.221-0.132,0.486-0.198,0.796-0.198
		c0.311,0,0.578,0.066,0.804,0.198s0.411,0.309,0.557,0.53c0.146,0.221,0.254,0.478,0.325,0.772c0.07,0.294,0.105,0.605,0.105,0.934
		v0.144c0,0.333-0.035,0.647-0.105,0.943c-0.071,0.296-0.178,0.555-0.321,0.775c-0.144,0.222-0.328,0.396-0.554,0.523
		s-0.491,0.191-0.797,0.191c-0.31,0-0.577-0.063-0.803-0.191s-0.411-0.302-0.558-0.523c-0.146-0.221-0.253-0.479-0.321-0.775
		s-0.103-0.61-0.103-0.943V8.233L131.841,8.233z M138.375,8.377c0,0.538,0.078,1.037,0.235,1.497s0.383,0.857,0.677,1.192
		s0.654,0.598,1.08,0.786c0.426,0.189,0.91,0.284,1.453,0.284c0.537,0,1.02-0.095,1.445-0.284c0.426-0.188,0.786-0.451,1.08-0.786
		s0.519-0.732,0.674-1.192c0.154-0.46,0.232-0.959,0.232-1.497V8.233c0-0.538-0.078-1.036-0.232-1.494
		c-0.155-0.458-0.38-0.855-0.674-1.193s-0.655-0.602-1.083-0.793c-0.429-0.191-0.914-0.287-1.456-0.287
		c-0.538,0-1.019,0.096-1.442,0.287s-0.783,0.456-1.077,0.793s-0.52,0.735-0.677,1.193c-0.157,0.458-0.235,0.956-0.235,1.494V8.377
		L138.375,8.377z M140.036,8.233c0-0.328,0.034-0.64,0.103-0.934s0.175-0.551,0.321-0.772c0.146-0.221,0.329-0.397,0.55-0.53
		s0.486-0.198,0.797-0.198c0.31,0,0.577,0.066,0.803,0.198s0.411,0.309,0.558,0.53c0.146,0.221,0.254,0.478,0.324,0.772
		s0.106,0.605,0.106,0.934v0.144c0,0.333-0.036,0.647-0.106,0.943s-0.178,0.555-0.321,0.775c-0.144,0.222-0.328,0.396-0.554,0.523
		s-0.491,0.191-0.796,0.191c-0.311,0-0.578-0.063-0.804-0.191s-0.411-0.302-0.557-0.523c-0.146-0.221-0.253-0.479-0.321-0.775
		s-0.103-0.61-0.103-0.943V8.233L140.036,8.233z M146.59,8.391c0,0.538,0.068,1.035,0.205,1.493s0.334,0.854,0.592,1.187
		c0.257,0.333,0.566,0.594,0.93,0.782c0.361,0.189,0.769,0.284,1.22,0.284c0.415,0,0.779-0.068,1.094-0.205s0.588-0.335,0.82-0.595
		v0.499c0,0.579-0.159,1.018-0.479,1.315c-0.319,0.299-0.754,0.448-1.306,0.448c-0.342,0-0.674-0.07-0.994-0.212
		c-0.322-0.142-0.619-0.374-0.893-0.697l-0.786,0.998c0.164,0.224,0.362,0.412,0.595,0.567s0.477,0.281,0.731,0.379
		c0.255,0.099,0.508,0.169,0.759,0.212c0.251,0.044,0.479,0.065,0.684,0.065c0.492,0,0.944-0.069,1.357-0.209
		c0.412-0.139,0.766-0.34,1.059-0.604c0.295-0.265,0.523-0.59,0.688-0.978s0.246-0.829,0.246-1.326V4.604h-1.497l-0.075,0.745
		c-0.232-0.283-0.511-0.5-0.834-0.653s-0.709-0.229-1.155-0.229c-0.456,0-0.866,0.091-1.23,0.273s-0.676,0.44-0.933,0.772
		c-0.258,0.333-0.455,0.731-0.592,1.196s-0.205,0.978-0.205,1.538V8.391L146.59,8.391z M148.244,8.247
		c0-0.333,0.034-0.646,0.103-0.94s0.172-0.55,0.312-0.769c0.139-0.219,0.317-0.392,0.536-0.52s0.479-0.191,0.779-0.191
		c0.36,0,0.659,0.075,0.899,0.226c0.238,0.15,0.432,0.355,0.577,0.615v3.254c-0.146,0.26-0.337,0.468-0.574,0.625
		s-0.542,0.236-0.916,0.236c-0.301,0-0.559-0.062-0.772-0.188c-0.214-0.125-0.392-0.297-0.533-0.516s-0.245-0.473-0.311-0.763
		c-0.066-0.289-0.1-0.598-0.1-0.926V8.247L148.244,8.247z M156.808,1.5h-1.661V12h1.661V1.5L156.808,1.5z M163.096,12.017
		c0.296-0.079,0.562-0.185,0.796-0.314c0.235-0.13,0.44-0.277,0.615-0.444c0.176-0.166,0.322-0.338,0.441-0.516l-0.896-0.854
		c-0.224,0.287-0.486,0.513-0.79,0.677c-0.303,0.164-0.659,0.246-1.069,0.246c-0.292,0-0.553-0.05-0.783-0.15
		c-0.229-0.101-0.43-0.238-0.598-0.414c-0.169-0.175-0.302-0.384-0.4-0.625c-0.098-0.241-0.158-0.506-0.181-0.793h4.833V8.117
		c0-0.533-0.064-1.023-0.191-1.47c-0.128-0.447-0.321-0.832-0.581-1.155s-0.588-0.575-0.984-0.755s-0.864-0.27-1.401-0.27
		c-0.47,0-0.908,0.09-1.316,0.27c-0.407,0.18-0.762,0.435-1.062,0.766s-0.538,0.731-0.711,1.203c-0.174,0.471-0.26,1-0.26,1.583
		v0.273c0,0.506,0.082,0.978,0.246,1.415s0.398,0.815,0.704,1.135c0.305,0.319,0.677,0.569,1.114,0.752s0.93,0.273,1.477,0.273
		C162.467,12.137,162.799,12.097,163.096,12.017L163.096,12.017z M162.593,5.94c0.189,0.093,0.343,0.219,0.462,0.376
		c0.118,0.157,0.206,0.337,0.263,0.54c0.058,0.203,0.093,0.414,0.106,0.632v0.123h-3.165c0.077-0.569,0.256-1.014,0.536-1.333
		s0.648-0.479,1.104-0.479C162.173,5.8,162.404,5.847,162.593,5.94L162.593,5.94z"/>
</g>
</svg>
